<mxfile host="Electron" modified="2023-04-28T16:35:59.132Z" agent="Mozilla/5.0 (Windows NT 10.0; Win64; x64) AppleWebKit/537.36 (KHTML, like Gecko) draw.io/21.2.1 Chrome/112.0.5615.87 Electron/24.1.2 Safari/537.36" etag="307NbcZiCLR8nKP8n7Ti" version="21.2.1" type="device">
  <diagram id="9w2dUoLk0e4sKFS6wbha" name="Page-1">
    <mxGraphModel dx="1434" dy="854" grid="1" gridSize="10" guides="1" tooltips="1" connect="1" arrows="1" fold="1" page="1" pageScale="1" pageWidth="827" pageHeight="1169" math="0" shadow="0">
      <root>
        <mxCell id="0" />
        <mxCell id="1" parent="0" />
        <mxCell id="T45EFFvtrbpIVjUMP6ur-36" value="" style="endArrow=classic;html=1;rounded=0;fontSize=20;jumpSize=6;endSize=10;startSize=6;strokeWidth=2;" parent="1" edge="1">
          <mxGeometry width="50" height="50" relative="1" as="geometry">
            <mxPoint x="85.18" y="877.410071942446" as="sourcePoint" />
            <mxPoint x="85.18" y="195.97122302158274" as="targetPoint" />
          </mxGeometry>
        </mxCell>
        <mxCell id="T45EFFvtrbpIVjUMP6ur-39" value="Power" style="edgeLabel;html=1;align=center;verticalAlign=middle;resizable=0;points=[];fontSize=32;rotation=270;fontStyle=1" parent="T45EFFvtrbpIVjUMP6ur-36" vertex="1" connectable="0">
          <mxGeometry x="0.2" y="-1" relative="1" as="geometry">
            <mxPoint x="-41" as="offset" />
          </mxGeometry>
        </mxCell>
        <mxCell id="T45EFFvtrbpIVjUMP6ur-37" value="" style="endArrow=classic;html=1;rounded=0;fontSize=20;strokeWidth=2;endSize=10;" parent="1" edge="1">
          <mxGeometry width="50" height="50" relative="1" as="geometry">
            <mxPoint x="85.18" y="877.410071942446" as="sourcePoint" />
            <mxPoint x="809.21" y="877.410071942446" as="targetPoint" />
          </mxGeometry>
        </mxCell>
        <mxCell id="T45EFFvtrbpIVjUMP6ur-38" value="Interest" style="edgeLabel;html=1;align=center;verticalAlign=middle;resizable=0;points=[];fontSize=32;fontStyle=1" parent="T45EFFvtrbpIVjUMP6ur-37" vertex="1" connectable="0">
          <mxGeometry x="-0.2176" y="1" relative="1" as="geometry">
            <mxPoint x="68" y="21" as="offset" />
          </mxGeometry>
        </mxCell>
        <mxCell id="T45EFFvtrbpIVjUMP6ur-40" value="&lt;font style=&quot;font-size: 26px;&quot;&gt;Low&lt;/font&gt;" style="text;html=1;align=center;verticalAlign=middle;resizable=0;points=[];autosize=1;strokeColor=none;fillColor=none;fontSize=32;" parent="1" vertex="1">
          <mxGeometry x="85.18" y="866.7625899280575" width="70" height="50" as="geometry" />
        </mxCell>
        <mxCell id="T45EFFvtrbpIVjUMP6ur-42" value="&lt;font style=&quot;font-size: 26px;&quot;&gt;Low&lt;/font&gt;" style="text;html=1;align=center;verticalAlign=middle;resizable=0;points=[];autosize=1;strokeColor=none;fillColor=none;fontSize=32;" parent="1" vertex="1">
          <mxGeometry x="10.6475" y="824.1726618705036" width="70" height="50" as="geometry" />
        </mxCell>
        <mxCell id="T45EFFvtrbpIVjUMP6ur-43" value="High" style="text;html=1;align=center;verticalAlign=middle;resizable=0;points=[];autosize=1;strokeColor=none;fillColor=none;fontSize=26;" parent="1" vertex="1">
          <mxGeometry x="702.735" y="877.410071942446" width="80" height="40" as="geometry" />
        </mxCell>
        <mxCell id="T45EFFvtrbpIVjUMP6ur-26" value="" style="shape=mxgraph.basic.three_corner_round_rect;dx=18;flipH=1;html=1;fillColor=#10739E;strokeColor=none;shadow=0;fontSize=12;fontColor=#FFFFFF;align=center;fontStyle=0;whiteSpace=wrap;rounded=0;aspect=fixed;" parent="1" vertex="1">
          <mxGeometry x="154.38875000000002" y="180" width="319.425" height="319.42446043165467" as="geometry" />
        </mxCell>
        <mxCell id="T45EFFvtrbpIVjUMP6ur-27" value="" style="shape=mxgraph.basic.three_corner_round_rect;dx=18;html=1;fillColor=#F2931E;strokeColor=none;shadow=0;fontSize=12;fontColor=#FFFFFF;align=center;fontStyle=0;whiteSpace=wrap;rounded=0;" parent="1" vertex="1">
          <mxGeometry x="489.785" y="180" width="319.425" height="319.42446043165467" as="geometry" />
        </mxCell>
        <mxCell id="T45EFFvtrbpIVjUMP6ur-28" value="" style="shape=mxgraph.basic.three_corner_round_rect;dx=18;flipH=1;flipV=1;html=1;fillColor=#AE4132;strokeColor=none;shadow=0;fontSize=12;fontColor=#FFFFFF;align=center;fontStyle=0;whiteSpace=wrap;rounded=0;" parent="1" vertex="1">
          <mxGeometry x="154.38875000000002" y="515.3956834532374" width="319.425" height="319.42446043165467" as="geometry" />
        </mxCell>
        <mxCell id="T45EFFvtrbpIVjUMP6ur-29" value="" style="shape=mxgraph.basic.three_corner_round_rect;dx=18;flipV=1;html=1;fillColor=#23445D;strokeColor=none;shadow=0;fontSize=12;fontColor=#FFFFFF;align=center;fontStyle=0;whiteSpace=wrap;rounded=0;" parent="1" vertex="1">
          <mxGeometry x="489.785" y="515.3956834532374" width="319.425" height="319.42446043165467" as="geometry" />
        </mxCell>
        <mxCell id="T45EFFvtrbpIVjUMP6ur-35" value="&lt;b&gt;&lt;font style=&quot;font-size: 20px;&quot;&gt;zInventory&lt;br&gt;Web-base Inventory Management System&lt;br&gt;&lt;/font&gt;&lt;/b&gt;" style="ellipse;whiteSpace=wrap;html=1;" parent="1" vertex="1">
          <mxGeometry x="330" y="450" width="280" height="99.53" as="geometry" />
        </mxCell>
        <mxCell id="T45EFFvtrbpIVjUMP6ur-44" value="High" style="text;html=1;align=center;verticalAlign=middle;resizable=0;points=[];autosize=1;strokeColor=none;fillColor=none;fontSize=26;" parent="1" vertex="1">
          <mxGeometry y="217.26618705035972" width="80" height="40" as="geometry" />
        </mxCell>
        <mxCell id="SdbVrredqHje75Qlri5q-1" value="&lt;b style=&quot;color: rgb(255, 255, 255);&quot;&gt;&lt;font style=&quot;font-size: 18px;&quot;&gt;Keep Satisfied&lt;/font&gt;&lt;/b&gt;" style="text;html=1;align=center;verticalAlign=middle;resizable=0;points=[];autosize=1;strokeColor=none;fillColor=none;" parent="1" vertex="1">
          <mxGeometry x="170" y="200" width="150" height="40" as="geometry" />
        </mxCell>
        <mxCell id="SdbVrredqHje75Qlri5q-4" value="&lt;b style=&quot;color: rgb(255, 255, 255);&quot;&gt;&lt;font style=&quot;font-size: 18px;&quot;&gt;Manage Closely&lt;/font&gt;&lt;/b&gt;" style="text;html=1;align=center;verticalAlign=middle;resizable=0;points=[];autosize=1;strokeColor=none;fillColor=none;" parent="1" vertex="1">
          <mxGeometry x="510" y="200" width="160" height="40" as="geometry" />
        </mxCell>
        <mxCell id="SdbVrredqHje75Qlri5q-5" value="&lt;ul&gt;&lt;li&gt;End-Users&lt;br&gt;&lt;/li&gt;&lt;/ul&gt;" style="text;html=1;align=left;verticalAlign=middle;resizable=0;points=[];autosize=1;fontSize=18;fillColor=none;fontColor=#FFFFFF;" parent="1" vertex="1">
          <mxGeometry x="510" y="560" width="150" height="70" as="geometry" />
        </mxCell>
        <mxCell id="SdbVrredqHje75Qlri5q-6" value="&lt;b style=&quot;color: rgb(255, 255, 255);&quot;&gt;&lt;font style=&quot;font-size: 18px;&quot;&gt;Monitor&lt;/font&gt;&lt;/b&gt;" style="text;html=1;align=center;verticalAlign=middle;resizable=0;points=[];autosize=1;strokeColor=none;fillColor=none;" parent="1" vertex="1">
          <mxGeometry x="170" y="545" width="90" height="40" as="geometry" />
        </mxCell>
        <mxCell id="SdbVrredqHje75Qlri5q-7" value="&lt;b style=&quot;color: rgb(255, 255, 255); font-size: 18px;&quot;&gt;Keep Informed&lt;/b&gt;" style="text;html=1;align=center;verticalAlign=middle;resizable=0;points=[];autosize=1;strokeColor=none;fillColor=none;fontSize=18;" parent="1" vertex="1">
          <mxGeometry x="510" y="545" width="150" height="40" as="geometry" />
        </mxCell>
        <mxCell id="SdbVrredqHje75Qlri5q-8" value="&lt;ul&gt;&lt;li&gt;&lt;b&gt;Faculty&lt;/b&gt;&lt;br&gt;&lt;/li&gt;&lt;/ul&gt;" style="text;html=1;align=left;verticalAlign=middle;resizable=0;points=[];autosize=1;fontSize=18;fillColor=none;fontColor=#FFFFFF;" parent="1" vertex="1">
          <mxGeometry x="170" y="560" width="130" height="70" as="geometry" />
        </mxCell>
        <mxCell id="rBVR4b1PKQ6o3fKFWpjw-2" value="&lt;ul style=&quot;border-color: var(--border-color); color: rgb(255, 255, 255); font-size: 18px; text-align: left;&quot;&gt;&lt;li&gt;Project Supervisor&lt;/li&gt;&lt;li style=&quot;border-color: var(--border-color);&quot;&gt;&lt;span style=&quot;background-color: initial;&quot;&gt;Student&lt;/span&gt;&lt;br&gt;&lt;/li&gt;&lt;/ul&gt;" style="text;html=1;strokeColor=none;fillColor=none;align=center;verticalAlign=middle;whiteSpace=wrap;rounded=0;" vertex="1" parent="1">
          <mxGeometry x="510" y="240" width="190" height="80" as="geometry" />
        </mxCell>
        <mxCell id="rBVR4b1PKQ6o3fKFWpjw-3" value="&lt;ul&gt;&lt;li style=&quot;border-color: var(--border-color);&quot;&gt;Client&lt;br&gt;&lt;/li&gt;&lt;/ul&gt;" style="text;html=1;align=left;verticalAlign=middle;resizable=0;points=[];autosize=1;fontSize=18;fillColor=none;fontColor=#FFFFFF;" vertex="1" parent="1">
          <mxGeometry x="160" y="217.26999999999998" width="110" height="70" as="geometry" />
        </mxCell>
      </root>
    </mxGraphModel>
  </diagram>
</mxfile>
